<?xml version="1.0" encoding="utf-8"?>
<!-- Generator: Adobe Illustrator 23.0.6, SVG Export Plug-In . SVG Version: 6.00 Build 0)  -->
<svg version="1.1" id="Layer_1" xmlns="http://www.w3.org/2000/svg" xmlns:xlink="http://www.w3.org/1999/xlink" x="0px" y="0px"
	 viewBox="0 0 312.7 94.23" style="enable-background:new 0 0 312.7 94.23;" xml:space="preserve">
<style type="text/css">
	.st0{fill:#003F00;}
	.st1{fill:#21E628;}
	.st2{fill:#FFFFFF;}
</style>
<g>
	<circle class="st0" cx="47.45" cy="47.12" r="33.14"/>
	<path d="M33.06,41.7V25.24l26.86,0.5l3.49,3.08l3.41,5.3v3.85l-1.33,4.41l-3.08,2.58l3.58,3.82l2.16,5.4v6.65
		c0,0-2.16,3.41-2.49,3.66c-0.33,0.25-8.48,3.24-8.48,3.24l-9.48,1.41c0,0-8.23,0.42-8.56,0c-0.33-0.42-6.9-0.75-6.9-1.25
		s0-18.46,0-18.46l9.31,0.08v-7.65L33.06,41.7z"/>
	<g>
		<path class="st1" d="M47.43,7.91c-20.7,0-37.7,16.13-39.1,36.48h3.7v0.01h17.72v0c0,0,0.91,0,2.34,0h1.15v0
			c1.52,0,3.41-0.01,5.39-0.01v3.93h-8.88v0.03H12.03h-0.64H8.25C8.9,69.4,26.22,86.33,47.43,86.33c21.62,0,39.21-17.59,39.21-39.21
			C86.64,25.49,69.05,7.91,47.43,7.91z M33.24,51.85h5.43v11.53c0,0,10.19,0,13.13,0c2.95,0,8.96-0.93,8.96-7.95
			c0-7.03-8.63-7.2-8.63-7.2h-9.97v-3.86c4.54-0.01,8.7-0.02,9.22-0.02c1.18,0,7.91-0.21,7.91-6.78s-7.58-6.78-7.58-6.78H38.67v10.1
			h-5.43V26.94h18.01c0,0,12.21-0.76,12.92,8.42C64.89,44.53,57.02,46,57.02,46s8.46,1.52,9.39,9.6
			c1.14,12.42-14.14,11.66-14.14,11.66H33.24V51.85z M42.12,59.85v-8h9.55c0,0,5.26-0.42,5.6,3.7c0,4.8-5.47,4.29-5.47,4.29H42.12z
			 M42.32,40.74v-6.36h10.1c0,0,3.45,0.34,3.45,3.2s-2.95,3.16-3.58,3.16C51.66,40.74,42.32,40.74,42.32,40.74z M47.43,83.18
			C29.14,83.18,14,69.5,11.68,51.84h18.07v18.96c0,0,12.33,0,23.02,0c10.02-0.55,16.41-3.83,17.13-12.92
			c0.72-9.09-6.36-12.63-6.36-12.63s4.76-2.31,4.04-9.93c0-12.63-16.29-11.87-16.29-11.87H29.75v17.47H11.91
			c2.95-16.94,17.75-29.86,35.52-29.86c19.89,0,36.07,16.18,36.07,36.07S67.32,83.18,47.43,83.18z"/>
	</g>
	<rect x="8.1" y="44.4" width="30.49" height="3.92"/>
	<g>
		<g>
			<polygon class="st2" points="156.31,44.07 149.25,44.07 155.05,54.05 162.41,54.05 			"/>
			<polygon class="st2" points="140.48,36.92 133.95,36.92 133.95,54.05 140.49,54.05 140.49,47.84 140.48,47.84 			"/>
			<path class="st2" d="M159.44,39.09c1.24-1.35,1.52-3.95,1.49-6.04c0-0.2-0.01-0.39-0.02-0.59c-0.01-0.2-0.02-0.39-0.02-0.59
				c-0.09-1.03-0.32-2.04-0.71-3.02c-0.39-0.98-0.97-1.83-1.75-2.56c-0.87-0.84-1.87-1.41-3.01-1.72c-1.14-0.31-2.3-0.49-3.49-0.54
				C151.61,24.01,151.3,24,151,24c-0.3,0-0.61-0.01-0.93-0.04h-16.11v5.38h6.54v-0.02c0,0,6.06,0,8.01,0c5.86,0,5.8,2.27,5.8,3.81
				c0,1.61-0.08,3.77-5.8,3.77c-0.94,0-3.72,0-3.72,0v5.32c0,0,2.56,0,3.42,0C155.07,42.23,157.31,41.41,159.44,39.09z"/>
		</g>
		<g>
			<path class="st2" d="M213.61,29.84l-3.91-5.91h-7.71c0,0,7.72,10.94,7.74,10.92C209.76,34.82,213.64,29.86,213.61,29.84z"/>
			<path class="st2" d="M229.71,54.05l-9.49-13.66c-0.75-1.08-0.76-2.52-0.01-3.61l8.77-12.82h-7.54l-7.31,10.52
				c0-0.01,0-0.02,0-0.03c0-0.03-13.82,19.6-13.82,19.6h7.71l6.86-10.14l6.98,10.14H229.71z"/>
		</g>
		<g>
			<path class="st2" d="M284.37,32.08l-5.82-8.16h-7.55c0,0,10.08,13.78,10.08,13.74C280.88,36.28,282.12,34.68,284.37,32.08z"/>
			<path class="st2" d="M293.73,23.96l-9.85,14.43c-0.72,1.06-1.11,2.31-1.11,3.59v12.08h6.54V41.78c0-0.66,0.21-1.31,0.59-1.85
				l11.41-15.98H293.73z"/>
		</g>
		<g>
			<path class="st2" d="M118.56,30.16c0.84,0.5,1.24,1.41,1.21,2.72c0,1.34-0.4,2.26-1.21,2.75c-0.81,0.49-1.83,0.72-3.08,0.69h-2.5
				v5.35l2.59,0.01c7.18,0,9.68-3.72,10.44-5.19c0.76-1.47,1.05-4.52,0.56-6.67c-0.58-2.37-2.14-5.87-11.22-5.87H99.37v5.44l16.11,0
				C116.69,29.41,117.72,29.66,118.56,30.16z"/>
			<path class="st2" d="M126.39,43.18h-6.31c0.28,2.27,0.21,3.74-0.84,4.75c-0.69,0.66-2.4,0.85-3.67,0.79h-9.66v-7.08h0.01v-5.32
				h-6.55v17.72h17.11c0.11,0,0.24,0,0.37,0c0.13,0,0.27,0,0.41,0c2.08-0.03,4.06-0.36,5.87-1.15c1.9-0.83,3.01-2.26,3.53-4.55
				C126.87,47.36,127.09,43.98,126.39,43.18z"/>
		</g>
		<g>
			<path class="st2" d="M179.32,23.96c-8.29,0-10.44,3.79-11.02,6.16c-0.49,2.15-0.4,4.91,0.36,6.38c0.77,1.47,3.26,5.19,10.44,5.19
				l14.23-0.01v-5.35h-14.14c-1.24,0.03-2.27-0.2-3.08-0.69c-0.81-0.49-1.21-1.4-1.21-2.74c-0.03-1.31,0.38-2.22,1.21-2.72
				c0.84-0.5,1.86-0.75,3.08-0.75l14.24,0v-5.44H179.32z"/>
			<path class="st2" d="M175.43,47.93c-1.05-1-1.12-2.48-0.84-4.75h-6.31c-0.7,0.8-0.48,4.18-0.26,5.16
				c0.52,2.29,1.63,3.72,3.53,4.55c1.81,0.79,3.79,1.12,5.87,1.15c0.15,0,0.28,0,0.41,0c0.13,0,0.25,0,0.37,0h15.23V48.7
				l-14.32,0.02C177.83,48.78,176.11,48.59,175.43,47.93z"/>
		</g>
		<g>
			<path class="st2" d="M240.26,35.7h-3.66v18.34h6.84V38.88C243.44,37.13,242.02,35.7,240.26,35.7z"/>
			<rect x="236.59" y="23.96" class="st2" width="6.84" height="9.13"/>
		</g>
		<g>
			<path class="st2" d="M254.59,35.66h3.62v4.85c0,2.71,0.37,4.82,1.1,6.33c0.74,1.51,2.74,2.25,6,2.22h7.67v4.99h-8.53
				c-0.06,0-0.12,0-0.2,0c-0.07,0-0.15,0-0.24,0c-1.82,0-3.59-0.16-5.31-0.48c-1.72-0.32-3.23-1.19-4.53-2.62
				c-0.92-1.01-1.59-2.14-1.99-3.39c-0.4-1.26-0.65-2.54-0.74-3.86c0-0.31-0.01-0.61-0.02-0.9c-0.01-0.29-0.02-0.61-0.02-0.94v-3.01
				C251.41,37.08,252.83,35.66,254.59,35.66z"/>
			<rect x="251.35" y="23.96" class="st2" width="6.84" height="9.13"/>
		</g>
	</g>
	<g>
		<path class="st2" d="M102.93,68.14h-2.67l-0.62,2.02h-0.99l2.1-6.44c0.05-0.18,0.17-0.26,0.36-0.26h0.99
			c0.19,0,0.31,0.09,0.35,0.26l2.11,6.44h-1L102.93,68.14z M102.68,67.29l-0.79-2.55c-0.02-0.06-0.05-0.15-0.08-0.27
			c-0.04-0.12-0.06-0.21-0.08-0.27h-0.26l-0.16,0.54l-0.79,2.55H102.68z"/>
		<path class="st2" d="M119.5,67.39l-1.36-0.38c-0.48-0.13-0.82-0.35-1.02-0.66s-0.31-0.72-0.31-1.25c0-0.38,0.04-0.69,0.12-0.93
			s0.22-0.42,0.42-0.54c0.2-0.12,0.42-0.2,0.67-0.24s0.58-0.06,0.99-0.06c0.79,0,1.46,0.07,2.02,0.2l-0.06,0.71
			c-0.94-0.03-1.58-0.05-1.92-0.05c-0.5,0-0.84,0.05-1.01,0.15c-0.17,0.1-0.25,0.36-0.25,0.78c0,0.33,0.06,0.56,0.18,0.7
			c0.12,0.14,0.33,0.24,0.63,0.32l1.33,0.37c0.5,0.14,0.85,0.36,1.05,0.66c0.2,0.3,0.31,0.72,0.31,1.24c0,0.74-0.17,1.23-0.5,1.48
			c-0.34,0.25-0.93,0.37-1.78,0.37c-0.71,0-1.42-0.06-2.11-0.19l0.07-0.72c1.01,0.03,1.7,0.05,2.06,0.05
			c0.5-0.01,0.84-0.07,1.02-0.19c0.17-0.12,0.26-0.39,0.26-0.8c0-0.34-0.06-0.58-0.17-0.71C120,67.57,119.8,67.47,119.5,67.39z"/>
		<path class="st2" d="M131.55,69.35l0.05,0.75c-0.59,0.05-1.55,0.08-2.88,0.08c-0.41,0-0.74-0.11-0.98-0.33
			c-0.24-0.22-0.36-0.51-0.37-0.88v-4.33c0.01-0.37,0.13-0.66,0.37-0.88c0.24-0.22,0.57-0.33,0.98-0.33c1.33,0,2.29,0.03,2.88,0.08
			l-0.05,0.76h-2.66c-0.19,0-0.33,0.05-0.41,0.14s-0.12,0.25-0.12,0.48v1.34h2.83v0.79h-2.83v1.71c0,0.23,0.04,0.39,0.12,0.48
			c0.08,0.09,0.22,0.14,0.41,0.14H131.55z"/>
		<path class="st2" d="M142.55,70.16h-1.04l-0.57-2.09c-0.14-0.45-0.42-0.67-0.85-0.67l-1.38-0.01v2.77h-0.96v-6.7
			c0.55-0.06,1.33-0.09,2.34-0.09c0.81,0,1.38,0.14,1.71,0.42s0.5,0.79,0.5,1.52c0,0.54-0.1,0.94-0.29,1.21s-0.51,0.44-0.95,0.5
			v0.05c0.43,0.13,0.72,0.45,0.85,0.97L142.55,70.16z M138.71,66.56h1.36c0.48-0.01,0.81-0.09,0.99-0.26
			c0.18-0.17,0.27-0.48,0.27-0.94c0-0.45-0.09-0.76-0.27-0.92c-0.18-0.16-0.51-0.24-0.99-0.24c-0.66,0-1.11,0-1.36,0.01V66.56z"/>
		<path class="st2" d="M153.58,63.46l-1.98,6.43c-0.06,0.18-0.18,0.27-0.37,0.27h-0.95c-0.19,0-0.31-0.09-0.37-0.27l-1.98-6.43h1
			l1.52,5.22c0.03,0.12,0.09,0.37,0.18,0.74h0.26c0.04-0.19,0.1-0.43,0.18-0.74l1.51-5.22H153.58z"/>
		<path class="st2" d="M160.37,70.16h-0.97v-6.7h0.97V70.16z"/>
		<path class="st2" d="M171.16,69.3l0.1,0.74c-0.54,0.16-1.2,0.23-1.99,0.23c-0.98,0-1.66-0.26-2.06-0.78s-0.59-1.42-0.59-2.69
			s0.2-2.17,0.59-2.69c0.4-0.52,1.08-0.78,2.06-0.78c0.7,0,1.32,0.06,1.86,0.19l-0.1,0.75c-0.52-0.05-1.1-0.08-1.76-0.08
			c-0.62,0-1.04,0.19-1.28,0.56c-0.24,0.38-0.35,1.06-0.35,2.04s0.12,1.66,0.35,2.04c0.24,0.38,0.66,0.56,1.28,0.56
			C170.09,69.41,170.72,69.38,171.16,69.3z"/>
		<path class="st2" d="M181.39,69.35l0.05,0.75c-0.59,0.05-1.55,0.08-2.88,0.08c-0.41,0-0.74-0.11-0.98-0.33
			c-0.24-0.22-0.36-0.51-0.37-0.88v-4.33c0.01-0.37,0.13-0.66,0.37-0.88c0.24-0.22,0.57-0.33,0.98-0.33c1.33,0,2.29,0.03,2.88,0.08
			l-0.05,0.76h-2.66c-0.19,0-0.33,0.05-0.41,0.14s-0.12,0.25-0.12,0.48v1.34h2.83v0.79h-2.83v1.71c0,0.23,0.04,0.39,0.12,0.48
			c0.08,0.09,0.22,0.14,0.41,0.14H181.39z"/>
		<path class="st2" d="M197.94,66.66v0.04c0.49,0.05,0.83,0.22,1.03,0.51s0.31,0.72,0.31,1.28c0,0.67-0.16,1.13-0.48,1.38
			c-0.32,0.25-0.88,0.37-1.68,0.37c-1.09,0-1.94-0.03-2.53-0.08v-6.7c0.52-0.05,1.27-0.08,2.23-0.08c0.84,0,1.43,0.12,1.75,0.36
			c0.33,0.24,0.49,0.7,0.49,1.38c0,0.49-0.09,0.85-0.27,1.1C198.62,66.48,198.34,66.62,197.94,66.66z M195.55,66.31h1.36
			c0.47,0,0.79-0.07,0.97-0.22c0.18-0.15,0.27-0.43,0.27-0.85c0-0.41-0.1-0.69-0.29-0.83s-0.55-0.21-1.07-0.21h-1.23V66.31z
			 M195.55,69.4l1.43,0.01c0.51,0,0.86-0.07,1.04-0.22c0.18-0.15,0.28-0.44,0.28-0.87c0-0.49-0.1-0.82-0.3-0.99
			c-0.2-0.18-0.56-0.27-1.08-0.27h-1.37V69.4z"/>
		<path class="st2" d="M207.85,67.84v2.32h-0.97v-2.33l-2.21-4.37h1.03l1.35,2.75c0.05,0.11,0.15,0.37,0.29,0.78h0.07
			c0.14-0.4,0.23-0.66,0.29-0.77l1.35-2.76h1.01L207.85,67.84z"/>
	</g>
	<g>
		<path class="st2" d="M227.49,69.55l0.09,1.45c-0.81,0.09-2.19,0.13-4.14,0.13c-0.59,0-1.07-0.16-1.42-0.48
			c-0.35-0.32-0.53-0.76-0.54-1.31v-5.4c0.01-0.55,0.19-0.99,0.54-1.31c0.35-0.32,0.83-0.48,1.42-0.48c1.95,0,3.33,0.04,4.14,0.13
			l-0.09,1.46h-3.43c-0.22,0-0.37,0.05-0.47,0.16c-0.1,0.1-0.14,0.27-0.14,0.5v1.36h3.55v1.42h-3.55v1.72
			c0,0.24,0.05,0.41,0.14,0.52c0.09,0.1,0.25,0.16,0.47,0.16H227.49z"/>
		<path class="st2" d="M242.69,62.17l-2.42,8.38c-0.04,0.16-0.13,0.3-0.25,0.39s-0.27,0.15-0.45,0.15h-1.8
			c-0.17,0-0.32-0.05-0.45-0.15s-0.21-0.23-0.25-0.39l-2.43-8.38h2.03l1.62,6.44c0.09,0.34,0.16,0.68,0.22,1h0.32
			c0.03-0.16,0.1-0.5,0.22-1l1.6-6.44H242.69z"/>
		<path class="st2" d="M256.08,69.55l0.09,1.45c-0.81,0.09-2.19,0.13-4.14,0.13c-0.59,0-1.07-0.16-1.42-0.48
			c-0.35-0.32-0.53-0.76-0.54-1.31v-5.4c0.01-0.55,0.19-0.99,0.54-1.31c0.35-0.32,0.83-0.48,1.42-0.48c1.95,0,3.33,0.04,4.14,0.13
			l-0.09,1.46h-3.43c-0.22,0-0.37,0.05-0.47,0.16c-0.1,0.1-0.14,0.27-0.14,0.5v1.36h3.55v1.42h-3.55v1.72
			c0,0.24,0.05,0.41,0.14,0.52c0.09,0.1,0.25,0.16,0.47,0.16H256.08z"/>
		<path class="st2" d="M271.09,71.08H269l-0.67-2.73c-0.09-0.28-0.2-0.48-0.34-0.59c-0.14-0.11-0.35-0.16-0.61-0.16l-1.38-0.01v3.49
			h-1.94v-8.92c0.8-0.08,1.93-0.12,3.4-0.12c1.2,0,2.05,0.19,2.55,0.57c0.5,0.38,0.75,1.07,0.75,2.07c0,0.66-0.13,1.17-0.39,1.54
			s-0.7,0.59-1.31,0.67v0.06c0.68,0.16,1.1,0.6,1.27,1.34L271.09,71.08z M265.99,66.08h1.42c0.52,0,0.87-0.09,1.06-0.26
			s0.28-0.51,0.28-1s-0.09-0.82-0.28-1c-0.19-0.17-0.54-0.26-1.07-0.26l-1.42,0.01V66.08z"/>
		<path class="st2" d="M285.9,62.17v5.36c0,1.36-0.26,2.32-0.78,2.88c-0.52,0.56-1.42,0.84-2.7,0.84c-1.34,0-2.29-0.28-2.84-0.84
			c-0.55-0.56-0.82-1.52-0.82-2.88v-5.36h1.96v5.36c0,0.82,0.11,1.38,0.34,1.68c0.23,0.3,0.65,0.45,1.26,0.45
			c0.6,0,1.02-0.15,1.25-0.45c0.23-0.3,0.34-0.86,0.34-1.68v-5.36H285.9z"/>
		<path class="st2" d="M297.39,67.71l-1.8-0.63c-0.66-0.24-1.14-0.57-1.42-0.98c-0.28-0.41-0.43-0.96-0.43-1.63
			c0-0.98,0.24-1.64,0.72-1.97c0.48-0.33,1.32-0.5,2.53-0.5c1.14,0,2.12,0.12,2.93,0.35l-0.13,1.34c-0.75-0.03-1.68-0.04-2.79-0.04
			c-0.52,0-0.86,0.04-1.03,0.14c-0.17,0.09-0.26,0.32-0.26,0.68c0,0.29,0.06,0.5,0.19,0.63c0.13,0.13,0.38,0.25,0.74,0.37l1.69,0.58
			c0.69,0.24,1.18,0.57,1.46,0.99c0.28,0.42,0.43,0.96,0.43,1.63c0,1-0.24,1.68-0.72,2.04c-0.48,0.36-1.34,0.54-2.58,0.54
			c-1.01,0-2.03-0.11-3.06-0.34l0.12-1.42c1.84,0.04,2.82,0.06,2.95,0.06c0.53,0,0.88-0.06,1.05-0.17c0.18-0.11,0.27-0.34,0.27-0.7
			c0-0.3-0.06-0.52-0.18-0.64C297.93,67.93,297.71,67.81,297.39,67.71z"/>
	</g>
</g>
</svg>
